<?xml version="1.0" encoding="UTF-8"?>
<!DOCTYPE svg PUBLIC "-//W3C//DTD SVG 1.1//EN" "http://www.w3.org/Graphics/SVG/1.1/DTD/svg11.dtd">
<svg version="1.1" xmlns="http://www.w3.org/2000/svg" xmlns:xlink="http://www.w3.org/1999/xlink" x="0" y="0" width="71" height="60.108" viewBox="0, 0, 71, 60.108">
  <g id="Layer_1" transform="translate(-172, -261.366)">
    <g>
      <path d="M172,261.366 L243,261.366 L243,263.634 L172,263.634 L172,261.366 z" fill="#FFFFFF"/>
      <path d="M172,272.934 L243,272.934 L243,275.202 L172,275.202 L172,272.934 z" fill="#FFFFFF"/>
      <path d="M172,284.502 L243,284.502 L243,286.77 L172,286.77 L172,284.502 z" fill="#FFFFFF"/>
      <path d="M172,296.07 L243,296.07 L243,298.338 L172,298.338 L172,296.07 z" fill="#FFFFFF"/>
      <path d="M172,307.638 L243,307.638 L243,309.906 L172,309.906 L172,307.638 z" fill="#FFFFFF"/>
      <path d="M172,319.206 L243,319.206 L243,321.474 L172,321.474 L172,319.206 z" fill="#FFFFFF"/>
    </g>
  </g>
</svg>
